<?xml version="1.0" encoding="UTF-8"?><svg viewBox="0 0 238 359" xmlns="http://www.w3.org/2000/svg"><defs><radialGradient cx="38.216%" cy="52.808%" fx="38.216%" fy="52.808%" r="58.315%" gradientTransform="matrix(1 0 0 .66207 0 .178)" id="a"><stop stop-color="#A4D9E6" offset="0%"/><stop stop-color="#41A3DB" offset="100%"/></radialGradient><radialGradient cx="18034%" cy="22127%" fx="18034%" fy="22127%" r="4143%" gradientTransform="matrix(1 0 0 .90108 0 21.888)" id="b"><stop stop-color="#FFF" offset="0%"/><stop stop-color="#E4F7FD" offset="97.062%"/></radialGradient><radialGradient cx="20615%" cy="18182%" fx="20615%" fy="18182%" r="944%" gradientTransform="matrix(1 0 0 .5385 0 83.911)" id="c"><stop stop-color="#FFF" offset="0%"/><stop stop-color="#CFEAF2" offset="100%"/></radialGradient><radialGradient cx="18125%" cy="19055%" fx="18125%" fy="19055%" r="4327%" gradientTransform="matrix(.58942 0 0 1 74.418 0)" id="d"><stop stop-color="#FFF" offset="0%"/><stop stop-color="#CFEAF2" offset="100%"/></radialGradient><radialGradient cx="31.899%" cy="47.579%" fx="31.899%" fy="47.579%" r="70.773%" gradientTransform="matrix(1 0 0 .68076 0 .152)" id="g"><stop stop-color="#FFF" offset="0%"/><stop stop-color="#FFF" stop-opacity="0" offset="100%"/></radialGradient><radialGradient cx="49.682%" cy="49.662%" fx="49.682%" fy="49.662%" r="115.022%" gradientTransform="matrix(1 0 0 .37097 0 .312)" id="h"><stop stop-color="#FFF" stop-opacity="0" offset="4%"/><stop stop-color="#FFF" offset="34%"/><stop stop-color="#FFF" stop-opacity="0" offset="100%"/></radialGradient><radialGradient cx="50%" cy="0%" fx="50%" fy="0%" r="100%" gradientTransform="matrix(0 .53857 -.78375 0 .5 -.27)" id="i"><stop stop-color="#003867" offset="0%"/><stop stop-color="#003867" stop-opacity="0" offset="100%"/></radialGradient><linearGradient x1="49.991%" y1="94.789%" x2="49.991%" y2="1.28%" id="e"><stop stop-color="#020E45" offset="0%"/><stop stop-color="#041873" offset="100%"/></linearGradient><linearGradient x1="49.993%" y1="100%" x2="49.993%" y2="0%" id="f"><stop stop-color="#003867" stop-opacity="0" offset="17%"/><stop stop-color="#003867" offset="33%"/><stop stop-color="#003867" offset="59%"/><stop stop-color="#003867" stop-opacity="0" offset="84%"/></linearGradient></defs><g fill="none" fill-rule="evenodd"><path d="M119 .953s16.27 55.976 45.53 93.176c43.658 57.636 73.005 99.989 73.005 148.677 0 73.341-53.064 116.223-118.535 116.223C53.53 359.03.465 316.147.465 242.806c0-56.77 36.74-97.412 74.788-149.365C109.859 46.165 119 .953 119 .953z" fill="url(#a)" transform="translate(0 -1)"/><path d="M120.994 176.03l-70.588 70.217v83.382h22.076v-67.782A4.535 4.535 0 0177 257.33h31.059a4.535 4.535 0 014.517 4.518v67.782h76.236v-86.1l-67.818-67.5z" fill="url(#b)" transform="translate(0 -1)"/><path fill="url(#c)" fill-rule="nonzero" d="M153.994 162.476h22.341v41.488h-22.341z" transform="translate(0 -1)"/><path fill="#FFF" d="M155.088 162.853l21.23-1.182v-.195h-22.342v41.489h-.458z"/><path fill="#8FBECA" opacity=".85" d="M176.318 202.965h-22.342v-27.512l22.342 16.87z"/><path fill="#8FBECA" d="M50.406 247.153l71.276-64.624 66.76 60.636v-11.7l-66.76-63.3-71.258 69.688z"/><path d="M196.841 252.124a4.553 4.553 0 006.406 0l9.67-9.671a5.506 5.506 0 000-7.165l-91.764-91.482-91.641 92.259a4.553 4.553 0 000 6.406l9.688 9.67a4.535 4.535 0 006.406 0l75.653-76.094 75.582 76.077z" fill="url(#d)" transform="translate(0 -1)"/><path d="M122.406 144.835l-91.641 91.5a4.535 4.535 0 000 6.406l-1.289-1.27a4.553 4.553 0 010-6.406l91.642-91.5 1.288 1.27z" fill="#FFF"/><path d="M187.082 305.03c-10.67 3.103-14.668 5.823-19.662 7.34-20.912 6.3-30.914-8.929-46.514-8.929-15.6 0-27.106 9.918-39.918 10.377-11.93.423-20.982-10.377-31.906-10.377-10.923 0-18.355 3.863-27.97 8.93 21.353 30.123 57.23 46.676 97.906 46.676 40.676 0 76.64-16.588 97.976-46.8-9.585-4.559-19.242-10.321-29.912-7.218z" fill="url(#e)" transform="translate(0 -1)"/><path d="M119 .953s16.27 55.976 45.53 93.176c43.588 57.636 72.935 99.989 72.935 148.677 0 73.341-53.065 116.223-118.536 116.223h-3.988c63.53-1.764 108.706-44.311 108.706-116.153 0-48.758-23.47-91.111-67.165-148.747 0 0-37.747-50.735-37.747-92.911" fill="url(#f)" opacity=".5" style="mix-blend-mode:soft-light" transform="translate(0 -1)"/><path d="M117.994 14.506S133.118 65.294 160.453 99c40.712 52.2 68.065 90.6 68.065 134.824 0 66.494-49.412 105.388-110.524 105.388S7.471 300.388 7.471 233.824c0-51.477 34.253-88.236 69.723-135.442 32.277-42.864 40.8-83.876 40.8-83.876z" fill="url(#g)" opacity=".4" transform="translate(0 -1)"/><path d="M24.676 216.847c0-52.818 31.995-83.418 63.724-131.735 15.882-24.194 27.476-47.824 32.753-64.165l-.335-.882A243.53 243.53 0 0186.74 84.847C52.86 130.73 21.888 162.494 21.888 214.941a107.259 107.259 0 0029.33 72.706c-12.142-18.582-26.542-43.641-26.542-70.8z" fill="url(#h)" transform="translate(0 -1)"/><path d="M119 9.265s10.024 45.547 28.059 75.882c26.894 46.835 44.982 81.282 44.982 120.953 0 59.665-32.7 74.47-73.059 74.47-40.358 0-73.058-14.805-73.058-74.47 0-46.2 22.64-79.235 46.094-121.518A252.018 252.018 0 00119 9.265z" fill="url(#i)" style="mix-blend-mode:soft-light" transform="translate(0 -1)"/></g></svg>